<svg xmlns="http://www.w3.org/2000/svg" viewBox="739.9 741.0 214.5 197.2"><path d="M848.35 832.16C890.73 819.13 890.92 761.44 854.38 748.72C883.04 744.99 921.15 771.21 935.48 804.32C950.40 838.80 940.97 879.99 919.20 901.43C919.02 899.48 918.94 897.84 918.72 896.22C917.84 889.73 914.12 885.43 908.57 882.13C898.98 876.44 889.60 870.38 879.27 863.93C881.39 862.77 882.31 862.14 883.31 861.75C896.85 856.48 903.26 845.97 904.81 832.10C904.96 830.79 903.25 828.17 902.12 827.99C892.62 826.52 878.51 835.59 875.98 844.63C875.45 846.50 875.09 849.25 876.06 850.45C876.85 851.43 880.05 851.36 881.66 850.62C886.70 848.30 891.50 845.44 896.09 842.95C890.83 853.30 870.54 859.39 861.14 847.64C857.92 843.61 854.30 839.90 850.92 835.99C850.04 834.96 849.39 833.73 848.35 832.16" fill="#44a57f"/><path d="M859.09 868.16C877.54 881.23 895.59 894.03 914.31 907.30C897.61 923.69 877.09 932.46 853.43 933.26C824.89 934.22 800.96 923.54 781.69 902.31C797.36 911.34 813.79 914.75 831.03 908.22C849.17 901.34 856.86 886.55 859.09 868.16" fill="#44a57f"/><path d="M835.83 841.02C823.60 846.73 813.65 853.97 805.28 863.28C803.49 865.28 801.96 867.51 800.59 869.96C813.32 862.37 824.12 851.57 838.99 847.82C846.80 868.96 833.93 901.49 807.28 900.31C793.88 899.72 783.65 892.80 778.36 880.26C773.13 867.83 775.41 856.24 784.73 846.34C796.12 834.25 814.27 830.68 829.42 837.45C831.38 838.32 833.19 839.53 835.83 841.02" fill="#0dc9b2"/><path d="M825.19 751.65C805.87 764.72 797.49 789.62 813.17 816.35C778.58 821.25 761.27 840.17 765.08 875.57C743.92 833.93 766.29 768.07 825.19 751.65" fill="#44a57f"/><path d="M840.00 778.94C836.54 791.91 835.53 805.13 836.67 818.54C836.06 818.59 835.61 818.77 835.41 818.62C824.27 809.92 819.05 798.26 819.86 784.38C820.63 771.30 828.02 762.31 840.07 757.49C842.43 756.55 845.98 756.62 848.24 757.73C860.14 763.56 865.32 774.02 865.62 786.68C865.93 799.22 860.92 809.48 849.65 815.96C845.23 818.50 844.00 818.07 843.16 812.88C842.16 806.79 841.68 800.60 841.34 794.43C841.05 789.30 841.28 784.14 841.28 778.99C840.85 778.97 840.43 778.96 840.00 778.94" fill="#0dc9b2"/></svg>